# xmcd
#
# Track frame offsets:
#   150
#   13727
#   29835
#   44075
#   60248
#   78346
#   93464
#   106301
#   122073
#   135936
#   152818
#   168980
#   188160
#   203877
#   219520
#
# Disc length: 3156 seconds
#
# Revision: 0
# Processed by: cddbd v1.5.2PL0 Copyright (c) Steve Scherf et al.
# Submitted via: GXTranscoder 2.0.1939
#
DISCID=cb0c520f
DTITLE=João Sérgio e Juliano - Ganhei na sena
DYEAR=1900
DGENRE=Alternative
TTITLE0=Ganhei na sena 01
TTITLE1=vai 02
TTITLE2=Quem tá solteiro 03
TTITLE3=Amor sem fim 04
TTITLE4=Sou fera sou peão 05
TTITLE5=Ordem de desejo 06
TTITLE6=Boa de cama 07
TTITLE7=Coração está em pedaços 08
TTITLE8=Turma da folia 09
TTITLE9=Seu amor é tudo que eu quero 10
TTITLE10=O que vejo 11
TTITLE11=Volta pra mim 12
TTITLE12=Te amei demais 13
TTITLE13=O amor tem que ser 14
TTITLE14=Não desanime 15
EXTD=
EXTT0=
EXTT1=
EXTT2=
EXTT3=
EXTT4=
EXTT5=
EXTT6=
EXTT7=
EXTT8=
EXTT9=
EXTT10=
EXTT11=
EXTT12=
EXTT13=
EXTT14=
PLAYORDER=
